<svg xmlns="http://www.w3.org/2000/svg" width="353.34771728515625" height="429.3138122558594"
  viewBox="-190.5490264892578 -140.18319702148438 353.34771728515625 429.3138122558594">
  <title>Neo4j Graph Visualization</title>
  <desc>Created using Neo4j (http://www.neo4j.com/)</desc>
  <g class="layer relationships">
    <g class="relationship" transform="translate(-91.70639181506776 190.28797799081283) rotate(296.5501342504202)">
      <path class="b-outline" fill="#A5ABB6" stroke="none"
        d="M 25 0.5 L 65.93818619617493 0.5 L 65.93818619617493 -0.5 L 25 -0.5 Z M 95.06318619617493 0.5 L 136.00137239234985 0.5 L 136.00137239234985 3.5 L 143.00137239234985 0 L 136.00137239234985 -3.5 L 136.00137239234985 -0.5 L 95.06318619617493 -0.5 Z" />
      <text text-anchor="middle" pointer-events="none" font-size="8px" fill="#fff" x="80.50068619617493" y="3"
        font-family="Helvetica Neue, Helvetica, Arial, sans-serif">seized</text>
    </g>
    <g class="relationship" transform="translate(-16.613017978560364 40.00342678356615) rotate(392.7066341517567)">
      <path class="b-outline" fill="#A5ABB6" stroke="none"
        d="M 25 0.5 L 54.92966219684955 0.5 L 54.92966219684955 -0.5 L 25 -0.5 Z M 87.62497469684955 0.5 L 117.5546368936991 0.5 L 117.5546368936991 3.5 L 124.5546368936991 0 L 117.5546368936991 -3.5 L 117.5546368936991 -0.5 L 87.62497469684955 -0.5 Z" />
      <text text-anchor="middle" pointer-events="none" font-size="8px" fill="#fff" x="71.27731844684955" y="3"
        font-family="Helvetica Neue, Helvetica, Arial, sans-serif">opened</text>
    </g>
    <g class="relationship" transform="translate(133.79870106894614 24.29363138646512) rotate(534.037344901465)">
      <path class="b-outline" fill="#A5ABB6" stroke="none"
        d="M 25 0.5 L 64.89034102874754 0.5 L 64.89034102874754 -0.5 L 25 -0.5 Z M 79.33955977874754 0.5 L 119.22990080749508 0.5 L 119.22990080749508 3.5 L 126.22990080749508 0 L 119.22990080749508 -3.5 L 119.22990080749508 -0.5 L 79.33955977874754 -0.5 Z" />
      <text text-anchor="middle" pointer-events="none" font-size="8px" fill="#fff" x="72.11495040374754" y="3"
        transform="rotate(180 72.11495040374754 0)"
        font-family="Helvetica Neue, Helvetica, Arial, sans-serif">let</text>
    </g>
    <g class="relationship" transform="translate(92.6536392709038 -66.34090417201256) rotate(495.77652216451156)">
      <path class="b-outline" fill="#A5ABB6" stroke="none"
        d="M 21.40063509461097,-12.933012701892217 L 21.90063509461097,-12.06698729810778 A 106.0558850045622 106.0558850045622 0 0 1 61.00879174990902,-25.35833067331545 L 60.877542212494056,-26.349680036016792 A 107.0558850045622 107.0558850045622 0 0 0 21.40063509461097,-12.933012701892217 Z M 84.28215541000739,-26.866383226184055 L 84.19478442790103,-25.87020738252704 A 106.0558850045622 106.0558850045622 0 0 1 123.85141712887408,-14.317752729375387 L 122.46753806747515,-11.656009176096518 L 130.29279859675793,-11.532325511657705 L 125.69658921073932,-17.866744133747215 L 124.31271014934039,-15.205000580468345 A 107.0558850045622 107.0558850045622 0 0 0 84.28215541000739,-26.866383226184055" />
      <text text-anchor="middle" pointer-events="none" font-size="8px" fill="#fff" x="72.57671846705429"
        y="-23.749823856282944" transform="rotate(180 72.57671846705429 -26.749823856282944)"
        font-family="Helvetica Neue, Helvetica, Arial, sans-serif">gave</text>
    </g>
    <g class="relationship" transform="translate(-16.613017978560364 40.00342678356615) rotate(315.77652216451156)">
      <path class="b-outline" fill="#A5ABB6" stroke="none"
        d="M 25 0.5 L 59.95574743704091 0.5 L 59.95574743704091 -0.5 L 25 -0.5 Z M 85.51824743704091 0.5 L 120.47399487408182 0.5 L 120.47399487408182 3.5 L 127.47399487408182 0 L 120.47399487408182 -3.5 L 120.47399487408182 -0.5 L 85.51824743704091 -0.5 Z" />
      <text text-anchor="middle" pointer-events="none" font-size="8px" fill="#fff" x="72.73699743704091" y="3"
        font-family="Helvetica Neue, Helvetica, Arial, sans-serif">threw</text>
    </g>
    <g class="relationship" transform="translate(92.6536392709038 -66.34090417201256) rotate(495.77652216451156)">
      <path class="b-outline" fill="#A5ABB6" stroke="none"
        d="M 21.40063509461097,12.933012701892217 L 21.90063509461097,12.06698729810778 A 106.0558850045622 106.0558850045622 0 0 0 58.3847918116725,24.97749255017112 L 58.228800602089855,25.96525099358375 A 107.0558850045622 107.0558850045622 0 0 1 21.40063509461097,12.933012701892217 Z M 86.94528211758491,26.599224197251658 L 86.83303509333042,25.605543863569835 A 106.0558850045622 106.0558850045622 0 0 0 123.85141712887408,14.317752729375387 L 122.46753806747515,11.656009176096518 L 130.29279859675793,11.532325511657705 L 125.69658921073932,17.866744133747215 L 124.31271014934039,15.205000580468345 A 107.0558850045622 107.0558850045622 0 0 1 86.94528211758491,26.599224197251658" />
      <text text-anchor="middle" pointer-events="none" font-size="8px" fill="#fff" x="72.5767184670543"
        y="29.749823856282944" transform="rotate(180 72.5767184670543 26.749823856282944)"
        font-family="Helvetica Neue, Helvetica, Arial, sans-serif">kissed</text>
    </g>
    <g class="relationship" transform="translate(3.7853031659981555 -111.18318714153577) rotate(457.6840291742335)">
      <path class="b-outline" fill="#A5ABB6" stroke="none"
        d="M 25 0.5 L 62.21769991865402 0.5 L 62.21769991865402 -0.5 L 25 -0.5 Z M 83.33879366865402 0.5 L 120.55649358730804 0.5 L 120.55649358730804 3.5 L 127.55649358730804 0 L 120.55649358730804 -3.5 L 120.55649358730804 -0.5 L 83.33879366865402 -0.5 Z" />
      <text text-anchor="middle" pointer-events="none" font-size="8px" fill="#fff" x="72.77824679365402" y="3"
        transform="rotate(180 72.77824679365402 0)"
        font-family="Helvetica Neue, Helvetica, Arial, sans-serif">took</text>
    </g>
    <g class="relationship" transform="translate(-93.55328060802887 -90.08887925906492) rotate(419.3987315887325)">
      <path class="b-outline" fill="#A5ABB6" stroke="none"
        d="M 24.018736134675446,-6.953439040707552 L 24.277555179777966,-5.987513214418485 A 193.08215550155725 193.08215550155725 0 0 1 60.407732499305105,-12.069741123701448 L 60.33603679154919,-13.067167675127365 A 194.08215550155725 194.08215550155725 0 0 0 24.018736134675446,-6.953439040707552 Z M 83.72045467555239,-13.33547341766041 L 83.67166317095447,-12.336664432378882 A 193.08215550155725 193.08215550155725 0 0 1 119.93188189242996,-7.085022046258784 L 119.22211685773672,-4.170192103444467 L 126.85144593144557,-5.9147086224436185 L 120.87823527202093,-10.971461970011205 L 120.1684702373277,-8.056632027196889 A 194.08215550155725 194.08215550155725 0 0 0 83.72045467555239,-13.33547341766041" />
      <text text-anchor="middle" pointer-events="none" font-size="8px" fill="#fff" x="72.0299373386714"
        y="-10.053887246376888" font-family="Helvetica Neue, Helvetica, Arial, sans-serif">drew</text>
    </g>
    <g class="relationship" transform="translate(-93.55328060802887 -90.08887925906492) rotate(419.3987315887325)">
      <path class="b-outline" fill="#A5ABB6" stroke="none"
        d="M 24.018736134675446,6.953439040707552 L 24.277555179777966,5.987513214418485 A 193.08215550155725 193.08215550155725 0 0 0 58.85568857016631,11.95188911910708 L 58.77595460571543,12.948705298205795 A 194.08215550155725 194.08215550155725 0 0 1 24.018736134675446,6.953439040707552 Z M 85.28284420429922,13.252837337381123 L 85.22600255452075,12.254454130966622 A 193.08215550155725 193.08215550155725 0 0 0 119.93188189242996,7.085022046258784 L 119.22211685773672,4.170192103444467 L 126.85144593144557,5.9147086224436185 L 120.87823527202093,10.971461970011205 L 120.1684702373277,8.056632027196889 A 194.08215550155725 194.08215550155725 0 0 1 85.28284420429922,13.252837337381123" />
      <text text-anchor="middle" pointer-events="none" font-size="8px" fill="#fff" x="72.02993733867139"
        y="16.05388724637689" font-family="Helvetica Neue, Helvetica, Arial, sans-serif">heard</text>
    </g>
    <g class="relationship" transform="translate(-156.4456347071191 -12.748167634667071) rotate(380.668889993373)">
      <path class="b-outline" fill="#A5ABB6" stroke="none"
        d="M 17.324116139070416,-18.03122292025696 L 18.031222920256962,-17.324116139070412 A 78.29070045386096 78.29070045386096 0 0 1 60.44831642167351,-39.17768780732838 L 60.28299931991912,-40.163928272867864 A 79.29070045386096 79.29070045386096 0 0 0 17.324116139070416,-18.03122292025696 Z M 81.46366158766998,-40.84292932919551 L 81.36185200058807,-39.84812542491176 A 78.29070045386096 78.29070045386096 0 0 1 125.09155918225873,-20.7562128551102 L 123.11046369706632,-18.503378933457242 L 130.67835424698103,-16.509129043270057 L 127.73301982918194,-23.75999141731414 L 125.75192434398953,-21.507157495661183 A 79.29070045386096 79.29070045386096 0 0 0 81.46366158766998,-40.84292932919551" />
      <text text-anchor="middle" pointer-events="none" font-size="8px" fill="#fff" x="70.86656477578494"
        y="-37.71447639749482" font-family="Helvetica Neue, Helvetica, Arial, sans-serif">took</text>
    </g>
    <g class="relationship" transform="translate(-156.4456347071191 -12.748167634667071) rotate(380.668889993373)">
      <path class="b-outline" fill="#A5ABB6" stroke="none"
        d="M 24.018736134675446,-6.953439040707552 L 24.277555179777966,-5.987513214418485 A 189.76019680388856 189.76019680388856 0 0 1 55.36098793679368,-11.594924541565774 L 55.26597264653833,-12.590400354741405 A 190.76019680388856 190.76019680388856 0 0 0 24.018736134675446,-6.953439040707552 Z M 87.10717972206236,-12.959688500452074 L 87.03527755464566,-11.962276810967353 A 189.76019680388856 189.76019680388856 0 0 1 118.24039927247262,-7.077276060983594 L 117.5313576729248,-4.162270055824998 L 125.16025355110064,-5.908679996231791 L 119.1857880718697,-10.963950734528389 L 118.47674647232188,-8.048944729369792 A 190.76019680388856 190.76019680388856 0 0 0 87.10717972206236,-12.959688500452074" />
      <text text-anchor="middle" pointer-events="none" font-size="8px" fill="#fff" x="71.18465563258225"
        y="-9.940640549934812" font-family="Helvetica Neue, Helvetica, Arial, sans-serif">noticed</text>
    </g>
    <g class="relationship" transform="translate(-156.4456347071191 -12.748167634667071) rotate(380.668889993373)">
      <path class="b-outline" fill="#A5ABB6" stroke="none"
        d="M 24.018736134675446,6.953439040707552 L 24.277555179777966,5.987513214418485 A 189.76019680388856 189.76019680388856 0 0 0 58.01159250481865,11.829175652352859 L 57.930545394469675,12.825885924149077 A 190.76019680388856 190.76019680388856 0 0 1 24.018736134675446,6.953439040707552 Z M 84.4378621989973,13.133312644728221 L 84.37995308446997,12.134990785579248 A 189.76019680388856 189.76019680388856 0 0 0 118.24039927247262,7.077276060983594 L 117.5313576729248,4.162270055824998 L 125.16025355110064,5.908679996231791 L 119.1857880718697,10.963950734528389 L 118.47674647232188,8.048944729369792 A 190.76019680388856 190.76019680388856 0 0 1 84.4378621989973,13.133312644728221" />
      <text text-anchor="middle" pointer-events="none" font-size="8px" fill="#fff" x="71.18465563258223"
        y="15.940640549934812" font-family="Helvetica Neue, Helvetica, Arial, sans-serif">heard</text>
    </g>
    <g class="relationship" transform="translate(-156.4456347071191 -12.748167634667071) rotate(380.668889993373)">
      <path class="b-outline" fill="#A5ABB6" stroke="none"
        d="M 17.324116139070416,18.03122292025696 L 18.031222920256962,17.324116139070412 A 78.29070045386096 78.29070045386096 0 0 0 53.53397363157249,37.69485874879064 L 53.28034025789796,38.66215917355973 A 79.29070045386096 79.29070045386096 0 0 1 17.324116139070416,18.03122292025696 Z M 88.5481296660126,39.7927596222016 L 88.35697204646544,38.811200268678306 A 78.29070045386096 78.29070045386096 0 0 0 125.09155918225873,20.7562128551102 L 123.11046369706632,18.503378933457242 L 130.67835424698103,16.509129043270057 L 127.73301982918194,23.75999141731414 L 125.75192434398953,21.507157495661183 A 79.29070045386096 79.29070045386096 0 0 1 88.5481296660126,39.7927596222016" />
      <text text-anchor="middle" pointer-events="none" font-size="8px" fill="#fff" x="70.86656477578492"
        y="43.71447639749482" font-family="Helvetica Neue, Helvetica, Arial, sans-serif">dragged</text>
    </g>
    <g class="relationship" transform="translate(-16.613017978560364 40.00342678356615) rotate(521.3618989239893)">
      <path class="b-outline" fill="#A5ABB6" stroke="none"
        d="M 25 0.5 L 55.83541853525716 0.5 L 55.83541853525716 -0.5 L 25 -0.5 Z M 84.96041853525716 0.5 L 115.79583707051432 0.5 L 115.79583707051432 3.5 L 122.79583707051432 0 L 115.79583707051432 -3.5 L 115.79583707051432 -0.5 L 84.96041853525716 -0.5 Z" />
      <text text-anchor="middle" pointer-events="none" font-size="8px" fill="#fff" x="70.39791853525716" y="3"
        transform="rotate(180 70.39791853525716 0)"
        font-family="Helvetica Neue, Helvetica, Arial, sans-serif">seized</text>
    </g>
    <g class="relationship" transform="translate(28.974327881186394 180.5494845165672) rotate(252.029074727624)">
      <path class="b-outline" fill="#A5ABB6" stroke="none"
        d="M 25 0.5 L 59.816716959728325 0.5 L 59.816716959728325 -0.5 L 25 -0.5 Z M 80.93781070972832 0.5 L 115.75452766945665 0.5 L 115.75452766945665 3.5 L 122.75452766945665 0 L 115.75452766945665 -3.5 L 115.75452766945665 -0.5 L 80.93781070972832 -0.5 Z" />
      <text text-anchor="middle" pointer-events="none" font-size="8px" fill="#fff" x="70.37726383472832" y="3"
        transform="rotate(180 70.37726383472832 0)"
        font-family="Helvetica Neue, Helvetica, Arial, sans-serif">took</text>
    </g>
    <g class="relationship" transform="translate(-91.70639181506776 190.28797799081283) rotate(251.55013425042017)">
      <path class="b-outline" fill="#A5ABB6" stroke="none"
        d="M 6.953439040707552 24.018736134675446 L 17.306200844808384 62.65576918623819 A 17.916697508022974 17.916697508022974 0 1 1 -17.306200844808384 62.65576918623819 L -8.765172356425198 30.780216918698923 L -4.901469051268926 31.815493099109005 L -6.4704761275630185 24.148145657226706 L -11.662949835292403 30.00375978339136 L -7.79924653013613 31.039035963801442 L -16.340275018519314 62.91458823134071 A 16.916697508022974 16.916697508022974 0 1 0 16.340275018519314 62.91458823134071 L 5.987513214418485 24.277555179777966 Z" />
      <text text-anchor="middle" pointer-events="none" font-size="8px" fill="#fff" x="0" y="94.20964923467838"
        transform="rotate(180 0 91.20964923467838)"
        font-family="Helvetica Neue, Helvetica, Arial, sans-serif">cast</text>
    </g>
    <g class="relationship" transform="translate(-91.70639181506776 190.28797799081283) rotate(296.5501342504202)">
      <path class="b-outline" fill="#A5ABB6" stroke="none"
        d="M 6.953439040707552 24.018736134675446 L 17.306200844808384 62.65576918623819 A 17.916697508022974 17.916697508022974 0 1 1 -17.306200844808384 62.65576918623819 L -8.765172356425198 30.780216918698923 L -4.901469051268926 31.815493099109005 L -6.4704761275630185 24.148145657226706 L -11.662949835292403 30.00375978339136 L -7.79924653013613 31.039035963801442 L -16.340275018519314 62.91458823134071 A 16.916697508022974 16.916697508022974 0 1 0 16.340275018519314 62.91458823134071 L 5.987513214418485 24.277555179777966 Z" />
      <text text-anchor="middle" pointer-events="none" font-size="8px" fill="#fff" x="0" y="94.20964923467838"
        font-family="Helvetica Neue, Helvetica, Arial, sans-serif">waved</text>
    </g>
    <g class="relationship" transform="translate(-91.70639181506776 190.28797799081283) rotate(341.5501342504202)">
      <path class="b-outline" fill="#A5ABB6" stroke="none"
        d="M 6.953439040707552 24.018736134675446 L 17.306200844808384 62.65576918623819 A 17.916697508022974 17.916697508022974 0 1 1 -17.306200844808384 62.65576918623819 L -8.765172356425198 30.780216918698923 L -4.901469051268926 31.815493099109005 L -6.4704761275630185 24.148145657226706 L -11.662949835292403 30.00375978339136 L -7.79924653013613 31.039035963801442 L -16.340275018519314 62.91458823134071 A 16.916697508022974 16.916697508022974 0 1 0 16.340275018519314 62.91458823134071 L 5.987513214418485 24.277555179777966 Z" />
      <text text-anchor="middle" pointer-events="none" font-size="8px" fill="#fff" x="0" y="94.20964923467838"
        font-family="Helvetica Neue, Helvetica, Arial, sans-serif">drew</text>
    </g>
    <g class="relationship" transform="translate(-91.70639181506776 190.28797799081283) rotate(386.5501342504202)">
      <path class="b-outline" fill="#A5ABB6" stroke="none"
        d="M 6.953439040707552 24.018736134675446 L 17.306200844808384 62.65576918623819 A 17.916697508022974 17.916697508022974 0 1 1 -17.306200844808384 62.65576918623819 L -8.765172356425198 30.780216918698923 L -4.901469051268926 31.815493099109005 L -6.4704761275630185 24.148145657226706 L -11.662949835292403 30.00375978339136 L -7.79924653013613 31.039035963801442 L -16.340275018519314 62.91458823134071 A 16.916697508022974 16.916697508022974 0 1 0 16.340275018519314 62.91458823134071 L 5.987513214418485 24.277555179777966 Z" />
      <text text-anchor="middle" pointer-events="none" font-size="8px" fill="#fff" x="0" y="94.20964923467838"
        font-family="Helvetica Neue, Helvetica, Arial, sans-serif">hurled</text>
    </g>
    <g class="relationship" transform="translate(-91.70639181506776 190.28797799081283) rotate(431.5501342504202)">
      <path class="b-outline" fill="#A5ABB6" stroke="none"
        d="M 6.953439040707552 24.018736134675446 L 17.306200844808384 62.65576918623819 A 17.916697508022974 17.916697508022974 0 1 1 -17.306200844808384 62.65576918623819 L -8.765172356425198 30.780216918698923 L -4.901469051268926 31.815493099109005 L -6.4704761275630185 24.148145657226706 L -11.662949835292403 30.00375978339136 L -7.79924653013613 31.039035963801442 L -16.340275018519314 62.91458823134071 A 16.916697508022974 16.916697508022974 0 1 0 16.340275018519314 62.91458823134071 L 5.987513214418485 24.277555179777966 Z" />
      <text text-anchor="middle" pointer-events="none" font-size="8px" fill="#fff" x="0" y="94.20964923467838"
        font-family="Helvetica Neue, Helvetica, Arial, sans-serif">ran</text>
    </g>
    <g class="relationship" transform="translate(-91.70639181506776 190.28797799081283) rotate(476.5501342504202)">
      <path class="b-outline" fill="#A5ABB6" stroke="none"
        d="M 6.953439040707552 24.018736134675446 L 17.306200844808384 62.65576918623819 A 17.916697508022974 17.916697508022974 0 1 1 -17.306200844808384 62.65576918623819 L -8.765172356425198 30.780216918698923 L -4.901469051268926 31.815493099109005 L -6.4704761275630185 24.148145657226706 L -11.662949835292403 30.00375978339136 L -7.79924653013613 31.039035963801442 L -16.340275018519314 62.91458823134071 A 16.916697508022974 16.916697508022974 0 1 0 16.340275018519314 62.91458823134071 L 5.987513214418485 24.277555179777966 Z" />
      <text text-anchor="middle" pointer-events="none" font-size="8px" fill="#fff" x="0" y="94.20964923467838"
        transform="rotate(180 0 91.20964923467838)"
        font-family="Helvetica Neue, Helvetica, Arial, sans-serif">set</text>
    </g>
    <g class="relationship" transform="translate(-91.70639181506776 190.28797799081283) rotate(521.5501342504201)">
      <path class="b-outline" fill="#A5ABB6" stroke="none"
        d="M 6.953439040707552 24.018736134675446 L 17.306200844808384 62.65576918623819 A 17.916697508022974 17.916697508022974 0 1 1 -17.306200844808384 62.65576918623819 L -8.765172356425198 30.780216918698923 L -4.901469051268926 31.815493099109005 L -6.4704761275630185 24.148145657226706 L -11.662949835292403 30.00375978339136 L -7.79924653013613 31.039035963801442 L -16.340275018519314 62.91458823134071 A 16.916697508022974 16.916697508022974 0 1 0 16.340275018519314 62.91458823134071 L 5.987513214418485 24.277555179777966 Z" />
      <text text-anchor="middle" pointer-events="none" font-size="8px" fill="#fff" x="0" y="94.20964923467838"
        transform="rotate(180 0 91.20964923467838)"
        font-family="Helvetica Neue, Helvetica, Arial, sans-serif">lowering</text>
    </g>
  </g>
  <g class="layer nodes">
    <g class="node" aria-label="graph-node20" transform="translate(-91.70639181506776,190.28797799081283)">
      <circle class="b-outline" cx="0" cy="0" r="25" fill="#569480" stroke="#447666" stroke-width="2px" /><text
        class="caption" text-anchor="middle" pointer-events="none" x="0" y="5" font-size="10px" fill="#FFFFFF"
        font-family="Helvetica Neue, Helvetica, Arial, sans-serif"> Isengard…</text>
    </g>
    <g class="node" aria-label="graph-node539" transform="translate(-16.613017978560364,40.00342678356615)">
      <circle class="b-outline" cx="0" cy="0" r="25" fill="#DA7194" stroke="#cc3c6c" stroke-width="2px" /><text
        class="caption" text-anchor="middle" pointer-events="none" x="0" y="5" font-size="10px" fill="#FFFFFF"
        font-family="Helvetica Neue, Helvetica, Arial, sans-serif"> Merry</text>
    </g>
    <g class="node" aria-label="graph-node83" transform="translate(109.22946548767361,120.8134433128109)">
      <circle class="b-outline" cx="0" cy="0" r="25" fill="#569480" stroke="#447666" stroke-width="2px" /><text
        class="caption" text-anchor="middle" pointer-events="none" x="0" y="5" font-size="10px" fill="#FFFFFF"
        font-family="Helvetica Neue, Helvetica, Arial, sans-serif"> Éomund</text>
    </g>
    <g class="node" aria-label="graph-node90" transform="translate(133.79870106894614,24.29363138646512)">
      <circle class="b-outline" cx="0" cy="0" r="25" fill="#DA7194" stroke="#cc3c6c" stroke-width="2px" /><text
        class="caption" text-anchor="middle" pointer-events="none" x="0" y="5" font-size="10px" fill="#FFFFFF"
        font-family="Helvetica Neue, Helvetica, Arial, sans-serif"> Bergil</text>
    </g>
    <g class="node" aria-label="graph-node497" transform="translate(92.6536392709038,-66.34090417201256)">
      <circle class="b-outline" cx="0" cy="0" r="25" fill="#DA7194" stroke="#cc3c6c" stroke-width="2px" /><text
        class="caption" text-anchor="middle" pointer-events="none" x="0" y="5" font-size="10px" fill="#FFFFFF"
        font-family="Helvetica Neue, Helvetica, Arial, sans-serif"> Frodo</text>
    </g>
    <g class="node" aria-label="graph-node501" transform="translate(3.7853031659981555,-111.18318714153577)">
      <circle class="b-outline" cx="0" cy="0" r="25" fill="#DA7194" stroke="#cc3c6c" stroke-width="2px" /><text
        class="caption" text-anchor="middle" pointer-events="none" x="0" y="5" font-size="10px" fill="#FFFFFF"
        font-family="Helvetica Neue, Helvetica, Arial, sans-serif"> Gandalf</text>
    </g>
    <g class="node" aria-label="graph-node502" transform="translate(-93.55328060802887,-90.08887925906492)">
      <circle class="b-outline" cx="0" cy="0" r="25" fill="#DA7194" stroke="#cc3c6c" stroke-width="2px" /><text
        class="caption" text-anchor="middle" pointer-events="none" x="0" y="5" font-size="10px" fill="#FFFFFF"
        font-family="Helvetica Neue, Helvetica, Arial, sans-serif"> Sam</text>
    </g>
    <g class="node" aria-label="graph-node538" transform="translate(-156.4456347071191,-12.748167634667071)">
      <circle class="b-outline" cx="0" cy="0" r="25" fill="#DA7194" stroke="#cc3c6c" stroke-width="2px" /><text
        class="caption" text-anchor="middle" pointer-events="none" x="0" y="5" font-size="10px" fill="#FFFFFF"
        font-family="Helvetica Neue, Helvetica, Arial, sans-serif"> Pippin</text>
    </g>
    <g class="node" aria-label="graph-node571" transform="translate(-156.65786435293143,87.23742364337919)">
      <circle class="b-outline" cx="0" cy="0" r="25" fill="#A5ABB6" stroke="#9AA1AC" stroke-width="2px" /><text
        class="caption" text-anchor="middle" pointer-events="none" x="0" y="5" font-size="10px" fill="#FFFFFF"
        font-family="Helvetica Neue, Helvetica, Arial, sans-serif"> Aragorn</text>
    </g>
    <g class="node" aria-label="graph-node547" transform="translate(28.974327881186394,180.5494845165672)">
      <circle class="b-outline" cx="0" cy="0" r="25" fill="#DA7194" stroke="#cc3c6c" stroke-width="2px" /><text
        class="caption" text-anchor="middle" pointer-events="none" x="0" y="5" font-size="10px" fill="#FFFFFF"
        font-family="Helvetica Neue, Helvetica, Arial, sans-serif"> Strider</text>
    </g>
  </g>
</svg>