<svg xmlns="http://www.w3.org/2000/svg" width="470.43402099609375" height="387.29803466796875"
  viewBox="-195.80743408203125 -120.21403503417969 470.43402099609375 387.29803466796875">
  <title>Neo4j Graph Visualization</title>
  <desc>Created using Neo4j (http://www.neo4j.com/)</desc>
  <g class="layer relationships">
    <g class="relationship" transform="translate(33.47662509865784 56.204992952837195) rotate(228.12456139555144)">
      <path class="b-outline" fill="#A5ABB6" stroke="none"
        d="M 25 0.5 L 71.70327543365251 0.5 L 71.70327543365251 -0.5 L 25 -0.5 Z M 95.48061918365251 0.5 L 142.18389461730501 0.5 L 142.18389461730501 3.5 L 149.18389461730501 0 L 142.18389461730501 -3.5 L 142.18389461730501 -0.5 L 95.48061918365251 -0.5 Z" />
      <text text-anchor="middle" pointer-events="none" font-size="8px" fill="#fff" x="83.59194730865251" y="3"
        transform="rotate(180 83.59194730865251 0)"
        font-family="Helvetica Neue, Helvetica, Arial, sans-serif">visits</text>
    </g>
    <g class="relationship" transform="translate(33.47662509865784 56.204992952837195) rotate(201.19113104251807)">
      <path class="b-outline" fill="#A5ABB6" stroke="none"
        d="M 25 0.5 L 90.89499621137467 0.5 L 90.89499621137467 -0.5 L 25 -0.5 Z M 116.91452746137467 0.5 L 182.80952367274935 0.5 L 182.80952367274935 3.5 L 189.80952367274935 0 L 182.80952367274935 -3.5 L 182.80952367274935 -0.5 L 116.91452746137467 -0.5 Z" />
      <text text-anchor="middle" pointer-events="none" font-size="8px" fill="#fff" x="103.90476183637467" y="3"
        transform="rotate(180 103.90476183637467 0)"
        font-family="Helvetica Neue, Helvetica, Arial, sans-serif">hated</text>
    </g>
    <g class="relationship" transform="translate(-77.92354603010186 181.7276883576285) rotate(311.5887432638082)">
      <path class="b-outline" fill="#A5ABB6" stroke="none"
        d="M 5.987513214418485,-24.277555179777966 L 6.953439040707552,-24.018736134675446 A 78.4443278653351 78.4443278653351 0 0 1 68.09009758283241,-80.78294328789029 L 67.90353541744534,-81.76538644576054 A 79.4443278653351 79.4443278653351 0 0 0 5.987513214418485,-24.277555179777966 Z M 91.2871875891001,-82.69741412367249 L 91.17940964487867,-81.70323913166183 A 78.4443278653351 78.4443278653351 0 0 1 156.63997291628544,-29.984955250432115 L 153.8131860595689,-28.980327923163728 L 159.45523448936447,-23.556557139304843 L 160.4090220585742,-31.324458353456635 L 157.58223520185766,-30.319831026188247 A 79.4443278653351 79.4443278653351 0 0 0 91.2871875891001,-82.69741412367249" />
      <text text-anchor="middle" pointer-events="none" font-size="8px" fill="#fff" x="79.58076769659611"
        y="-79.59754445325753" font-family="Helvetica Neue, Helvetica, Arial, sans-serif">drew</text>
    </g>
    <g class="relationship" transform="translate(-77.92354603010186 181.7276883576285) rotate(311.5887432638082)">
      <path class="b-outline" fill="#A5ABB6" stroke="none"
        d="M 17.324116139070416,-18.03122292025696 L 18.031222920256962,-17.324116139070412 A 91.49059244334552 91.49059244334552 0 0 1 68.55145223839003,-43.01657831512192 L 68.3965358843167,-44.0045059052016 A 92.49059244334552 92.49059244334552 0 0 0 17.324116139070416,-18.03122292025696 Z M 91.79853740376525,-44.674931255052684 L 91.70043341380972,-43.6797550861485 A 91.49059244334552 91.49059244334552 0 0 1 143.60868353803443,-20.921685043512863 L 141.61228672847125,-18.682399492546665 L 149.1664159585494,-16.63664007969315 L 146.27054595078533,-23.90739911146779 L 144.27414914122215,-21.66811356050159 A 92.49059244334552 92.49059244334552 0 0 0 91.79853740376525,-44.674931255052684" />
      <text text-anchor="middle" pointer-events="none" font-size="8px" fill="#fff" x="80.0905566334855"
        y="-41.58336422637426" font-family="Helvetica Neue, Helvetica, Arial, sans-serif">flung</text>
    </g>
    <g class="relationship" transform="translate(-77.92354603010186 181.7276883576285) rotate(311.5887432638082)">
      <path class="b-outline" fill="#A5ABB6" stroke="none"
        d="M 24.018736134675446,-6.953439040707552 L 24.277555179777966,-5.987513214418485 A 225.82297237358134 225.82297237358134 0 0 1 62.99021478525014,-12.818289118900566 L 62.902824976060025,-13.814463311122864 A 226.82297237358134 226.82297237358134 0 0 0 24.018736134675446,-6.953439040707552 Z M 97.85354910735289,-14.177152443236281 L 97.78685080207403,-13.179379254544102 A 225.82297237358134 225.82297237358134 0 0 1 136.63292652636048,-7.153442480115406 L 135.91677150402566,-4.24017593137933 L 143.54990764380048,-5.967958519456835 L 137.5877998894736,-11.037797878430174 L 136.87164486713877,-8.124531329694099 A 226.82297237358134 226.82297237358134 0 0 0 97.85354910735289,-14.177152443236281" />
      <text text-anchor="middle" pointer-events="none" font-size="8px" fill="#fff" x="80.37637880483803"
        y="-11.17005954991248" font-family="Helvetica Neue, Helvetica, Arial, sans-serif">rebuked</text>
    </g>
    <g class="relationship" transform="translate(33.47662509865784 56.204992952837195) rotate(491.5887432638082)">
      <path class="b-outline" fill="#A5ABB6" stroke="none"
        d="M 24.018736134675446,-6.953439040707552 L 24.277555179777966,-5.987513214418485 A 225.82297237358134 225.82297237358134 0 0 1 63.87368086446109,-12.89404401741777 L 63.79020326167729,-13.890553671075708 A 226.82297237358134 226.82297237358134 0 0 0 24.018736134675446,-6.953439040707552 Z M 96.9647828833866,-14.23481147374747 L 96.90200290355187,-13.236784082273687 A 225.82297237358134 225.82297237358134 0 0 1 136.63292652636048,-7.153442480115406 L 135.91677150402566,-4.24017593137933 L 143.54990764380048,-5.967958519456835 L 137.5877998894736,-11.037797878430174 L 136.87164486713877,-8.124531329694099 A 226.82297237358134 226.82297237358134 0 0 0 96.9647828833866,-14.23481147374747" />
      <text text-anchor="middle" pointer-events="none" font-size="8px" fill="#fff" x="80.37637880483803"
        y="-11.17005954991248" transform="rotate(180 80.37637880483803 -14.17005954991248)"
        font-family="Helvetica Neue, Helvetica, Arial, sans-serif">brought</text>
    </g>
    <g class="relationship" transform="translate(-77.92354603010186 181.7276883576285) rotate(311.5887432638082)">
      <path class="b-outline" fill="#A5ABB6" stroke="none"
        d="M 17.324116139070416,18.03122292025696 L 18.031222920256962,17.324116139070412 A 91.49059244334552 91.49059244334552 0 0 0 65.06830969822514,42.40118009940305 L 64.87532229829732,43.38238133435392 A 92.49059244334552 92.49059244334552 0 0 1 17.324116139070416,18.03122292025696 Z M 95.34959214514552,44.25541448096534 L 95.21309446943695,43.264774089841424 A 91.49059244334552 91.49059244334552 0 0 0 143.60868353803443,20.921685043512863 L 141.61228672847125,18.682399492546665 L 149.1664159585494,16.63664007969315 L 146.27054595078533,23.90739911146779 L 144.27414914122215,21.66811356050159 A 92.49059244334552 92.49059244334552 0 0 1 95.34959214514552,44.25541448096534" />
      <text text-anchor="middle" pointer-events="none" font-size="8px" fill="#fff" x="80.0905566334855"
        y="47.58336422637426" font-family="Helvetica Neue, Helvetica, Arial, sans-serif">roused</text>
    </g>
    <g class="relationship" transform="translate(33.47662509865784 56.204992952837195) rotate(491.5887432638082)">
      <path class="b-outline" fill="#A5ABB6" stroke="none"
        d="M 5.987513214418485,-24.277555179777966 L 6.953439040707552,-24.018736134675446 A 78.4443278653351 78.4443278653351 0 0 1 67.21969824391685,-80.61255428809642 L 67.0220403197592,-81.59282534500757 A 79.4443278653351 79.4443278653351 0 0 0 5.987513214418485,-24.277555179777966 Z M 92.17962041689508,-82.5955583991812 L 92.06060903597938,-81.60266550908048 A 78.4443278653351 78.4443278653351 0 0 1 156.63997291628544,-29.984955250432115 L 153.8131860595689,-28.980327923163728 L 159.45523448936447,-23.556557139304843 L 160.4090220585742,-31.324458353456635 L 157.58223520185766,-30.319831026188247 A 79.4443278653351 79.4443278653351 0 0 0 92.17962041689508,-82.5955583991812" />
      <text text-anchor="middle" pointer-events="none" font-size="8px" fill="#fff" x="79.58076769659611"
        y="-79.59754445325753" transform="rotate(180 79.58076769659611 -82.59754445325753)"
        font-family="Helvetica Neue, Helvetica, Arial, sans-serif">leads</text>
    </g>
    <g class="relationship" transform="translate(164.03439095566404 125.52712754662659) rotate(207.966919366522)">
      <path class="b-outline" fill="#A5ABB6" stroke="none"
        d="M 5.987513214418485,-24.277555179777966 L 6.953439040707552,-24.018736134675446 A 67.92155182112212 67.92155182112212 0 0 1 59.53532172939384,-73.10026906631062 L 59.34355198874848,-74.08170901178502 A 68.92155182112212 68.92155182112212 0 0 0 5.987513214418485,-24.277555179777966 Z M 79.62312248378558,-74.9980888537674 L 79.52065087380566,-74.00335292441322 A 67.92155182112212 67.92155182112212 0 0 1 136.31492666592283,-29.864237626811075 L 133.4989880639546,-28.829592861712765 L 139.1984208848136,-23.466155016401647 L 140.06951146854712,-31.243763980275492 L 137.2535728665789,-30.209119215177182 A 68.92155182112212 68.92155182112212 0 0 0 79.62312248378558,-74.9980888537674" />
      <text text-anchor="middle" pointer-events="none" font-size="8px" fill="#fff" x="69.47198392623814"
        y="-71.79114873175125" transform="rotate(180 69.47198392623814 -74.79114873175125)"
        font-family="Helvetica Neue, Helvetica, Arial, sans-serif">saw</text>
    </g>
    <g class="relationship" transform="translate(164.03439095566404 125.52712754662659) rotate(207.966919366522)">
      <path class="b-outline" fill="#A5ABB6" stroke="none"
        d="M 14.44320574945421,-20.411854586953456 L 15.247803529220876,-19.818034401379958 A 71.231636500117 71.231636500117 0 0 1 57.12633965467535,-47.05865707364964 L 56.90966232968282,-48.034900351134354 A 72.231636500117 72.231636500117 0 0 0 14.44320574945421,-20.411854586953456 Z M 82.9492792592634,-48.99991302373164 L 82.80545503408632,-48.01030977381164 A 71.231636500117 71.231636500117 0 0 1 126.58539032510691,-23.94413896294054 L 124.31007673384933,-21.98890290009838 L 131.5268267369482,-18.960946593813198 L 129.61914178011702,-26.551120380063416 L 127.34382818885945,-24.59588431722126 A 72.231636500117 72.231636500117 0 0 0 82.9492792592634,-48.99991302373164" />
      <text text-anchor="middle" pointer-events="none" font-size="8px" fill="#fff" x="69.90411203794594"
        y="-46.20167988355696" transform="rotate(180 69.90411203794594 -49.20167988355696)"
        font-family="Helvetica Neue, Helvetica, Arial, sans-serif">found</text>
    </g>
    <g class="relationship" transform="translate(33.47662509865784 56.204992952837195) rotate(387.966919366522)">
      <path class="b-outline" fill="#A5ABB6" stroke="none"
        d="M 20.90208894244944,13.724164012497553 L 21.434121018964774,12.87743981326927 A 96.0966478229304 96.0966478229304 0 0 0 49.55973434313719,24.813485452161572 L 49.32038274987863,25.784418413186472 A 97.0966478229304 97.0966478229304 0 0 1 20.90208894244944,13.724164012497553 Z M 91.20906698460227,26.79908749829545 L 91.017006318283,25.817704443391307 A 96.0966478229304 96.0966478229304 0 0 0 119.68754769520075,15.257431364108191 L 118.21631237149799,12.64295883178178 L 126.03318949124616,12.260294364189516 L 121.64919479347108,18.743394740543405 L 120.17795946976833,16.128922208216995 A 97.0966478229304 97.0966478229304 0 0 1 91.20906698460227,26.79908749829545" />
      <text text-anchor="middle" pointer-events="none" font-size="8px" fill="#fff" x="70.22144684737735"
        y="31.07840373179674" font-family="Helvetica Neue, Helvetica, Arial, sans-serif">welcomed</text>
    </g>
    <g class="relationship" transform="translate(33.47662509865784 56.204992952837195) rotate(387.966919366522)">
      <path class="b-outline" fill="#A5ABB6" stroke="none"
        d="M 24.471206027250748,5.139073415689509 L 24.657117634413662,4.15650694245622 A 257.66816393540125 257.66816393540125 0 0 0 54.09486671682579,7.986047189748803 L 54.02320185490609,8.983475957915203 A 258.66816393540125 258.66816393540125 0 0 1 24.471206027250748,5.139073415689509 Z M 86.75488461455943,9.258827164492317 L 86.7000101982716,8.260333900400298 A 257.66816393540125 257.66816393540125 0 0 0 116.1980195724997,4.926583384443369 L 115.68995448444623,1.9699180556817208 L 123.1815828542858,4.233875733778888 L 116.87543968990433,8.868803822792232 L 116.36737460185086,5.912138494030584 A 258.66816393540125 258.66816393540125 0 0 1 86.75488461455943,9.258827164492317" />
      <text text-anchor="middle" pointer-events="none" font-size="8px" fill="#fff" x="70.38888940882126"
        y="12.139437229887761" font-family="Helvetica Neue, Helvetica, Arial, sans-serif">thought</text>
    </g>
    <g class="relationship" transform="translate(33.47662509865784 56.204992952837195) rotate(387.966919366522)">
      <path class="b-outline" fill="#A5ABB6" stroke="none"
        d="M 24.471206027250748,-5.139073415689509 L 24.657117634413662,-4.15650694245622 A 257.66816393540125 257.66816393540125 0 0 1 57.19734234986727,-8.190151828040001 L 57.13771807373688,-9.188372718272177 A 258.66816393540125 258.66816393540125 0 0 0 24.471206027250748,-5.139073415689509 Z M 83.63736208805223,-9.411297674706105 L 83.59453987980994,-8.412214966177288 A 257.66816393540125 257.66816393540125 0 0 1 116.1980195724997,-4.926583384443369 L 115.68995448444623,-1.9699180556817208 L 123.1815828542858,-4.233875733778888 L 116.87543968990433,-8.868803822792232 L 116.36737460185086,-5.912138494030584 A 258.66816393540125 258.66816393540125 0 0 0 83.63736208805223,-9.411297674706105" />
      <text text-anchor="middle" pointer-events="none" font-size="8px" fill="#fff" x="70.38888940882129"
        y="-6.139437229887761" font-family="Helvetica Neue, Helvetica, Arial, sans-serif">heard</text>
    </g>
    <g class="relationship" transform="translate(164.03439095566404 125.52712754662659) rotate(207.966919366522)">
      <path class="b-outline" fill="#A5ABB6" stroke="none"
        d="M 20.90208894244944,13.724164012497553 L 21.434121018964774,12.87743981326927 A 96.0966478229304 96.0966478229304 0 0 0 60.64035572212081,26.864542521110764 L 60.516311183062534,27.856819172216603 A 97.0966478229304 97.0966478229304 0 0 1 20.90208894244944,13.724164012497553 Z M 79.92592873787657,28.326978100491857 L 79.85007330108594,27.329859274719666 A 96.0966478229304 96.0966478229304 0 0 0 119.68754769520075,15.257431364108191 L 118.21631237149799,12.64295883178178 L 126.03318949124616,12.260294364189516 L 121.64919479347108,18.743394740543405 L 120.17795946976833,16.128922208216995 A 97.0966478229304 97.0966478229304 0 0 1 79.92592873787657,28.326978100491857" />
      <text text-anchor="middle" pointer-events="none" font-size="8px" fill="#fff" x="70.22144684737735"
        y="31.07840373179674" transform="rotate(180 70.22144684737735 28.07840373179674)"
        font-family="Helvetica Neue, Helvetica, Arial, sans-serif">had</text>
    </g>
    <g class="relationship" transform="translate(33.47662509865784 56.204992952837195) rotate(387.966919366522)">
      <path class="b-outline" fill="#A5ABB6" stroke="none"
        d="M 14.44320574945421,-20.411854586953456 L 15.247803529220876,-19.818034401379958 A 71.231636500117 71.231636500117 0 0 1 49.271887693003535,-44.83626930608813 L 48.94494402643033,-45.78131313517103 A 72.231636500117 72.231636500117 0 0 0 14.44320574945421,-20.411854586953456 Z M 91.05895419682929,-47.342033234020064 L 90.80285679980524,-46.375382250863524 A 71.231636500117 71.231636500117 0 0 1 126.58539032510691,-23.94413896294054 L 124.31007673384933,-21.98890290009838 L 131.5268267369482,-18.960946593813198 L 129.61914178011702,-26.551120380063416 L 127.34382818885945,-24.59588431722126 A 72.231636500117 72.231636500117 0 0 0 91.05895419682929,-47.342033234020064" />
      <text text-anchor="middle" pointer-events="none" font-size="8px" fill="#fff" x="69.90411203794594"
        y="-46.20167988355696" font-family="Helvetica Neue, Helvetica, Arial, sans-serif">suspected</text>
    </g>
    <g class="relationship" transform="translate(164.03439095566404 125.52712754662659) rotate(207.966919366522)">
      <path class="b-outline" fill="#A5ABB6" stroke="none"
        d="M 5.987513214418485,24.277555179777966 L 6.953439040707552,24.018736134675446 A 67.92155182112212 67.92155182112212 0 0 0 49.7468783569514,70.41489019377556 L 49.41099466263459,71.35679366223297 A 68.92155182112212 68.92155182112212 0 0 1 5.987513214418485,24.277555179777966 Z M 89.76096150581454,73.18010132295467 L 89.51139745879343,72.21174302850244 A 67.92155182112212 67.92155182112212 0 0 0 136.31492666592283,29.864237626811075 L 133.4989880639546,28.829592861712765 L 139.1984208848136,23.466155016401647 L 140.06951146854712,31.243763980275492 L 137.2535728665789,30.209119215177182 A 68.92155182112212 68.92155182112212 0 0 1 89.76096150581454,73.18010132295467" />
      <text text-anchor="middle" pointer-events="none" font-size="8px" fill="#fff" x="69.47198392623815"
        y="77.79114873175125" transform="rotate(180 69.47198392623815 74.79114873175125)"
        font-family="Helvetica Neue, Helvetica, Arial, sans-serif">supposed</text>
    </g>
    <g class="relationship" transform="translate(159.65076304397567 238.08400184113344) rotate(235.2499617337245)">
      <path class="b-outline" fill="#A5ABB6" stroke="none"
        d="M 24.018736134675446,-6.953439040707552 L 24.277555179777966,-5.987513214418485 A 330.3496659385604 330.3496659385604 0 0 1 97.722498930465,-17.02384777987362 L 97.6860047469361,-18.023181645290265 A 331.3496659385604 331.3496659385604 0 0 0 24.018736134675446,-6.953439040707552 Z M 116.60983288352882,-18.173474607118862 L 116.58921571285433,-17.17368716357231 A 330.3496659385604 330.3496659385604 0 0 1 190.2001849118193,-7.305270027512713 L 189.46985109039346,-4.395525621335166 L 197.11131082980455,-6.086115178548673 L 191.17396334038708,-11.184929235749443 L 190.44362951896125,-8.275184829571895 A 331.3496659385604 331.3496659385604 0 0 0 116.60983288352882,-18.173474607118862" />
      <text text-anchor="middle" pointer-events="none" font-size="8px" fill="#fff" x="107.15081650586315"
        y="-14.733471390262537" transform="rotate(180 107.15081650586315 -17.733471390262537)"
        font-family="Helvetica Neue, Helvetica, Arial, sans-serif">see</text>
    </g>
    <g class="relationship" transform="translate(33.47662509865784 56.204992952837195) rotate(415.2499617337245)">
      <path class="b-outline" fill="#A5ABB6" stroke="none"
        d="M 24.018736134675446,-6.953439040707552 L 24.277555179777966,-5.987513214418485 A 330.3496659385604 330.3496659385604 0 0 1 93.28808280299307,-16.832071496029755 L 93.23816521818763,-17.830824836313127 A 331.3496659385604 331.3496659385604 0 0 0 24.018736134675446,-6.953439040707552 Z M 121.0601665512731,-18.051787051472104 L 121.02611845211058,-17.052366856087076 A 330.3496659385604 330.3496659385604 0 0 1 190.2001849118193,-7.305270027512713 L 189.46985109039346,-4.395525621335166 L 197.11131082980455,-6.086115178548673 L 191.17396334038708,-11.184929235749443 L 190.44362951896125,-8.275184829571895 A 331.3496659385604 331.3496659385604 0 0 0 121.0601665512731,-18.051787051472104" />
      <text text-anchor="middle" pointer-events="none" font-size="8px" fill="#fff" x="107.15081650586315"
        y="-14.733471390262537" font-family="Helvetica Neue, Helvetica, Arial, sans-serif">raised</text>
    </g>
    <g class="relationship" transform="translate(245.62657564107795 -26.040162120386654) rotate(518.8099513545468)">
      <path class="b-outline" fill="#A5ABB6" stroke="none"
        d="M 25 0.5 L 92.80817592199644 0.5 L 92.80817592199644 -0.5 L 25 -0.5 Z M 127.72614467199644 0.5 L 195.53432059399287 0.5 L 195.53432059399287 3.5 L 202.53432059399287 0 L 195.53432059399287 -3.5 L 195.53432059399287 -0.5 L 127.72614467199644 -0.5 Z" />
      <text text-anchor="middle" pointer-events="none" font-size="8px" fill="#fff" x="110.26716029699644" y="3"
        transform="rotate(180 110.26716029699644 0)"
        font-family="Helvetica Neue, Helvetica, Arial, sans-serif">haunted</text>
    </g>
    <g class="relationship" transform="translate(33.47662509865784 56.204992952837195) rotate(301.5780432577796)">
      <path class="b-outline" fill="#A5ABB6" stroke="none"
        d="M 25 0.5 L 46.363844331805154 0.5 L 46.363844331805154 -0.5 L 25 -0.5 Z M 98.18025058180515 0.5 L 119.54409491361031 0.5 L 119.54409491361031 3.5 L 126.54409491361031 0 L 119.54409491361031 -3.5 L 119.54409491361031 -0.5 L 98.18025058180515 -0.5 Z" />
      <text text-anchor="middle" pointer-events="none" font-size="8px" fill="#fff" x="72.27204745680515" y="3"
        font-family="Helvetica Neue, Helvetica, Arial, sans-serif">caught_even</text>
    </g>
    <g class="relationship" transform="translate(14.94466497682479 -91.21403829281076) rotate(442.8349660181709)">
      <path class="b-outline" fill="#A5ABB6" stroke="none"
        d="M 24.018736134675446,6.953439040707552 L 24.277555179777966,5.987513214418485 A 188.04400776274557 188.04400776274557 0 0 0 47.86838530965066,10.715151315418154 L 47.73502003683552,11.706218267751296 A 189.04400776274557 189.04400776274557 0 0 1 24.018736134675446,6.953439040707552 Z M 93.78233340508487,12.243266289922502 L 93.67211881565947,11.249358475143993 A 188.04400776274557 188.04400776274557 0 0 0 117.36679346884246,7.073209374556191 L 116.6581316780551,4.158111011502543 L 124.28679994776553,5.905514923227966 L 118.31167585655894,10.960007191961054 L 117.60301406577157,8.044908828907406 A 189.04400776274557 189.04400776274557 0 0 1 93.78233340508487,12.243266289922502" />
      <text text-anchor="middle" pointer-events="none" font-size="8px" fill="#fff" x="70.74809383043821"
        y="15.882135390979812" font-family="Helvetica Neue, Helvetica, Arial, sans-serif">abandoned</text>
    </g>
    <g class="relationship" transform="translate(33.47662509865784 56.204992952837195) rotate(262.8349660181709)">
      <path class="b-outline" fill="#A5ABB6" stroke="none"
        d="M 24.018736134675446,6.953439040707552 L 24.277555179777966,5.987513214418485 A 188.04400776274557 188.04400776274557 0 0 0 57.79505392066103,11.783523212274645 L 57.71447771955901,12.780271663899214 A 189.04400776274557 189.04400776274557 0 0 1 24.018736134675446,6.953439040707552 Z M 83.78054037935831,13.084279137370771 L 83.72323301055363,12.085922555041265 A 188.04400776274557 188.04400776274557 0 0 0 117.36679346884246,7.073209374556191 L 116.6581316780551,4.158111011502543 L 124.28679994776553,5.905514923227966 L 118.31167585655894,10.960007191961054 L 117.60301406577157,8.044908828907406 A 189.04400776274557 189.04400776274557 0 0 1 83.78054037935831,13.084279137370771" />
      <text text-anchor="middle" pointer-events="none" font-size="8px" fill="#fff" x="70.74809383043821"
        y="15.882135390979812" transform="rotate(180 70.74809383043821 12.882135390979812)"
        font-family="Helvetica Neue, Helvetica, Arial, sans-serif">hated</text>
    </g>
    <g class="relationship" transform="translate(159.65076304397567 238.08400184113344) rotate(288.03073518218224)">
      <path class="b-outline" fill="#A5ABB6" stroke="none"
        d="M 25 0.5 L 125.93329845438393 0.5 L 125.93329845438393 -0.5 L 25 -0.5 Z M 144.83173595438393 0.5 L 245.76503440876786 0.5 L 245.76503440876786 3.5 L 252.76503440876786 0 L 245.76503440876786 -3.5 L 245.76503440876786 -0.5 L 144.83173595438393 -0.5 Z" />
      <text text-anchor="middle" pointer-events="none" font-size="8px" fill="#fff" x="135.38251720438393" y="3"
        font-family="Helvetica Neue, Helvetica, Arial, sans-serif">see</text>
    </g>
  </g>
  <g class="layer nodes">
    <g class="node" aria-label="graph-node218" transform="translate(-82.79346292729,-73.49194523188157)">
      <circle class="b-outline" cx="0" cy="0" r="25" fill="#DA7194" stroke="#cc3c6c" stroke-width="2px" /><text
        class="caption" text-anchor="middle" pointer-events="none" x="0" y="5" font-size="10px" fill="#FFFFFF"
        font-family="Helvetica Neue, Helvetica, Arial, sans-serif"> Shelob</text>
    </g>
    <g class="node" aria-label="graph-node525" transform="translate(33.47662509865784,56.204992952837195)">
      <circle class="b-outline" cx="0" cy="0" r="25" fill="#A5ABB6" stroke="#9AA1AC" stroke-width="2px" /><text
        class="caption" text-anchor="middle" pointer-events="none" x="0" y="5" font-size="10px" fill="#FFFFFF"
        font-family="Helvetica Neue, Helvetica, Arial, sans-serif"> Gollum</text>
    </g>
    <g class="node" aria-label="graph-node496" transform="translate(-166.80742849412712,-21.444407154027196)">
      <circle class="b-outline" cx="0" cy="0" r="25" fill="#DA7194" stroke="#cc3c6c" stroke-width="2px" /><text
        class="caption" text-anchor="middle" pointer-events="none" x="0" y="5" font-size="10px" fill="#FFFFFF"
        font-family="Helvetica Neue, Helvetica, Arial, sans-serif"> Bilbo</text>
    </g>
    <g class="node" aria-label="graph-node497" transform="translate(-77.92354603010186,181.7276883576285)">
      <circle class="b-outline" cx="0" cy="0" r="25" fill="#DA7194" stroke="#cc3c6c" stroke-width="2px" /><text
        class="caption" text-anchor="middle" pointer-events="none" x="0" y="5" font-size="10px" fill="#FFFFFF"
        font-family="Helvetica Neue, Helvetica, Arial, sans-serif"> Frodo</text>
    </g>
    <g class="node" aria-label="graph-node502" transform="translate(164.03439095566404,125.52712754662659)">
      <circle class="b-outline" cx="0" cy="0" r="25" fill="#DA7194" stroke="#cc3c6c" stroke-width="2px" /><text
        class="caption" text-anchor="middle" pointer-events="none" x="0" y="5" font-size="10px" fill="#FFFFFF"
        font-family="Helvetica Neue, Helvetica, Arial, sans-serif"> Sam</text>
    </g>
    <g class="node" aria-label="graph-node505" transform="translate(159.65076304397567,238.08400184113344)">
      <circle class="b-outline" cx="0" cy="0" r="25" fill="#569480" stroke="#447666" stroke-width="2px" /><text
        class="caption" text-anchor="middle" pointer-events="none" x="0" y="5" font-size="10px" fill="#FFFFFF"
        font-family="Helvetica Neue, Helvetica, Arial, sans-serif"> Sméagol</text>
    </g>
    <g class="node" aria-label="graph-node506" transform="translate(245.62657564107795,-26.040162120386654)">
      <circle class="b-outline" cx="0" cy="0" r="25" fill="#569480" stroke="#447666" stroke-width="2px" /><text
        class="caption" text-anchor="middle" pointer-events="none" x="0" y="5" font-size="10px" fill="#FFFFFF"
        font-family="Helvetica Neue, Helvetica, Arial, sans-serif"> Déagol</text>
    </g>
    <g class="node" aria-label="graph-node567" transform="translate(112.83412565665314,-72.8996150531248)">
      <circle class="b-outline" cx="0" cy="0" r="25" fill="#A5ABB6" stroke="#9AA1AC" stroke-width="2px" /><text
        class="caption" text-anchor="middle" pointer-events="none" x="0" y="5" font-size="10px" fill="#FFFFFF"
        font-family="Helvetica Neue, Helvetica, Arial, sans-serif"> Legolas</text>
    </g>
    <g class="node" aria-label="graph-node526" transform="translate(14.94466497682479,-91.21403829281076)">
      <circle class="b-outline" cx="0" cy="0" r="25" fill="#DA7194" stroke="#cc3c6c" stroke-width="2px" /><text
        class="caption" text-anchor="middle" pointer-events="none" x="0" y="5" font-size="10px" fill="#FFFFFF"
        font-family="Helvetica Neue, Helvetica, Arial, sans-serif"> Ring</text>
    </g>
  </g>
</svg>